<?xml version="1.0" encoding="UTF-8"?>
<!DOCTYPE svg PUBLIC "-//W3C//DTD SVG 1.1//EN" "http://www.w3.org/Graphics/SVG/1.1/DTD/svg11.dtd">
<svg xmlns="http://www.w3.org/2000/svg" version="1.1" width="975px" height="345px" style="shape-rendering:geometricPrecision; text-rendering:geometricPrecision; image-rendering:optimizeQuality; fill-rule:evenodd; clip-rule:evenodd" xmlns:xlink="http://www.w3.org/1999/xlink">
<g><path style="opacity:1" fill="#0e2b35" d="M 206.5,31.5 C 205.761,31.369 205.094,31.5357 204.5,32C 219.23,41.0301 234.23,49.5301 249.5,57.5C 260.27,62.7192 270.603,68.7192 280.5,75.5C 271.009,81.7474 261.342,87.7474 251.5,93.5C 251.44,92.9569 251.107,92.6236 250.5,92.5C 246.833,94.6667 243.167,96.8333 239.5,99C 238.5,99.6667 237.5,99.6667 236.5,99C 199.002,77.419 161.669,55.5856 124.5,33.5C 123.893,33.6236 123.56,33.9569 123.5,34.5C 122.209,33.4583 122.209,32.2917 123.5,31C 134.167,24.6667 144.833,18.3333 155.5,12C 160.193,8.59132 165.193,7.92465 170.5,10C 182.409,17.428 194.409,24.5946 206.5,31.5 Z"/></g>
<g><path style="opacity:1" fill="#0f191e" d="M 444.5,22.5 C 435.649,23.219 426.649,23.8856 417.5,24.5C 416.584,24.4573 415.917,24.1239 415.5,23.5C 425.091,21.3283 434.757,20.995 444.5,22.5 Z"/></g>
<g><path style="opacity:1" fill="#10161a" d="M 446.5,23.5 C 455.241,24.5373 462.575,28.204 468.5,34.5C 461.186,29.5082 453.853,25.8415 446.5,23.5 Z"/></g>
<g><path style="opacity:1" fill="#131d21" d="M 602.5,26.5 C 593.76,24.4081 584.76,23.9081 575.5,25C 570.833,28.6 566.666,32.7667 563,37.5C 562.601,37.2716 562.435,36.9382 562.5,36.5C 565.613,32.4509 568.613,28.2843 571.5,24C 582.077,23.8211 592.577,23.3211 603,22.5C 604.587,23.846 604.42,25.1794 602.5,26.5 Z"/></g>
<g><path style="opacity:1" fill="#000101" d="M 647.5,106.5 C 646.499,81.1992 646.165,53.8658 646.5,24.5C 637.5,24.5 628.5,24.5 619.5,24.5C 619.831,53.6715 619.498,82.6715 618.5,111.5C 618.5,82.1667 618.5,52.8333 618.5,23.5C 628.167,23.5 637.833,23.5 647.5,23.5C 647.5,51.1667 647.5,78.8333 647.5,106.5 Z"/></g>
<g><path style="opacity:1" fill="#24282a" d="M 693.5,23.5 C 703.083,23.1816 712.583,23.5149 722,24.5C 722.792,53.5191 722.626,82.5191 721.5,111.5C 720.502,82.6715 720.169,53.6715 720.5,24.5C 711.833,24.5 703.167,24.5 694.5,24.5C 693.833,24.5 693.5,24.1667 693.5,23.5 Z"/></g>
<g><path style="opacity:1" fill="#191d1f" d="M 531.5,75.5 C 530.503,58.6749 530.17,41.6749 530.5,24.5C 521.5,24.5 512.5,24.5 503.5,24.5C 503.5,66.1667 503.5,107.833 503.5,149.5C 512.5,149.5 521.5,149.5 530.5,149.5C 530.168,130.423 530.501,112.09 531.5,94.5C 531.5,113.167 531.5,131.833 531.5,150.5C 521.584,150.819 511.75,150.486 502,149.5C 501.5,107.501 501.333,65.5013 501.5,23.5C 511.5,23.5 521.5,23.5 531.5,23.5C 531.5,40.8333 531.5,58.1667 531.5,75.5 Z"/></g>
<g><path style="opacity:1" fill="#181e21" d="M 123.5,34.5 C 123.56,33.9569 123.893,33.6236 124.5,33.5C 161.669,55.5856 199.002,77.419 236.5,99C 237.5,99.6667 238.5,99.6667 239.5,99C 243.167,96.8333 246.833,94.6667 250.5,92.5C 251.107,92.6236 251.44,92.9569 251.5,93.5C 247.861,95.6552 244.194,97.8218 240.5,100C 238.833,100.667 237.167,100.667 235.5,100C 197.975,78.4074 160.642,56.574 123.5,34.5 Z"/></g>
<g><path style="opacity:1" fill="#161c1f" d="M 206.5,31.5 C 221.368,39.4272 235.701,48.0939 249.5,57.5C 234.23,49.5301 219.23,41.0301 204.5,32C 205.094,31.5357 205.761,31.369 206.5,31.5 Z"/></g>
<g><path style="opacity:1" fill="#161e22" d="M 468.5,34.5 C 475.918,40.6762 479.585,48.6762 479.5,58.5C 470.927,59.3454 462.427,60.6788 454,62.5C 453.235,62.4301 452.735,62.0967 452.5,61.5C 460.587,59.4308 468.92,58.0975 477.5,57.5C 478.459,51.5001 476.459,47.0001 471.5,44C 472.167,43.3333 472.833,42.6667 473.5,42C 471.585,39.6004 469.919,37.1004 468.5,34.5 Z"/></g>
<g><path style="opacity:1" fill="#01141f" d="M 693.5,23.5 C 693.5,24.1667 693.833,24.5 694.5,24.5C 694.667,51.5021 694.5,78.5021 694,105.5C 693.667,107.167 693.333,108.833 693,110.5C 692.536,109.906 692.369,109.239 692.5,108.5C 692.169,79.9951 692.502,51.6618 693.5,23.5 Z"/></g>
<g><path style="opacity:1" fill="#0e2b35" d="M 201.5,122.5 C 200.279,121.535 198.946,121.702 197.5,123C 187.33,129.252 176.997,135.252 166.5,141C 165.167,141.667 163.833,141.667 162.5,141C 124.669,119.252 87.0025,97.2523 49.5,75C 51.0629,74.2411 52.0629,73.0744 52.5,71.5C 65.4365,63.6925 78.4365,55.8591 91.5,48C 94.2975,46.0863 97.2975,45.0863 100.5,45C 138.002,67.5852 175.668,89.9186 213.5,112C 214.731,113.183 214.731,114.349 213.5,115.5C 209.472,117.845 205.472,120.178 201.5,122.5 Z"/></g>
<g><path style="opacity:1" fill="#0f2a34" d="M 444.5,22.5 C 445.492,22.3284 446.158,22.6618 446.5,23.5C 453.853,25.8415 461.186,29.5082 468.5,34.5C 469.919,37.1004 471.585,39.6004 473.5,42C 472.833,42.6667 472.167,43.3333 471.5,44C 476.459,47.0001 478.459,51.5001 477.5,57.5C 468.92,58.0975 460.587,59.4308 452.5,61.5C 451.575,53.4863 447.241,48.3197 439.5,46C 433.415,45.1392 427.415,45.4725 421.5,47C 414.023,51.078 412.19,56.9113 416,64.5C 417.255,65.2106 418.421,66.044 419.5,67C 432.332,71.7925 445.332,76.1259 458.5,80C 477.636,87.7635 485.136,101.93 481,122.5C 479.105,131.218 474.605,138.218 467.5,143.5C 467.44,142.957 467.107,142.624 466.5,142.5C 460.349,146.274 453.682,148.774 446.5,150C 438.356,150.894 430.356,151.727 422.5,152.5C 405.762,151.569 393.262,143.902 385,129.5C 383.11,123.99 382.277,118.324 382.5,112.5C 391.49,111.406 400.49,110.406 409.5,109.5C 410.024,119.189 415.024,125.023 424.5,127C 431.567,127.839 438.567,127.506 445.5,126C 452.676,121.852 454.343,116.019 450.5,108.5C 449.5,107.667 448.5,106.833 447.5,106C 434.399,100.723 421.065,96.0563 407.5,92C 388.187,84.0956 381.02,69.9289 386,49.5C 390.947,35.392 400.78,26.7254 415.5,23.5C 415.917,24.1239 416.584,24.4573 417.5,24.5C 426.649,23.8856 435.649,23.219 444.5,22.5 Z"/></g>
<g><path style="opacity:1" fill="#0f2b36" d="M 647.5,106.5 C 650.425,123.163 660.425,129.663 677.5,126C 686.328,123.346 691.328,117.512 692.5,108.5C 692.369,109.239 692.536,109.906 693,110.5C 693.333,108.833 693.667,107.167 694,105.5C 694.5,78.5021 694.667,51.5021 694.5,24.5C 703.167,24.5 711.833,24.5 720.5,24.5C 720.169,53.6715 720.502,82.6715 721.5,111.5C 717.535,135.182 703.535,148.516 679.5,151.5C 661.678,152.838 645.678,148.005 631.5,137C 628.543,133.884 626.21,130.384 624.5,126.5C 624.919,125.328 625.585,124.328 626.5,123.5C 625.264,122.643 623.931,121.977 622.5,121.5C 621.478,118.559 620.645,115.559 620,112.5C 619.536,113.094 619.369,113.761 619.5,114.5C 618.596,113.791 618.263,112.791 618.5,111.5C 619.498,82.6715 619.831,53.6715 619.5,24.5C 628.5,24.5 637.5,24.5 646.5,24.5C 646.165,53.8658 646.499,81.1992 647.5,106.5 Z"/></g>
<g><path style="opacity:1" fill="#0e2b35" d="M 286.5,217.5 C 285.137,221.702 282.47,224.869 278.5,227C 243.833,247.333 209.167,267.667 174.5,288C 173.251,288.74 172.251,288.573 171.5,287.5C 172.167,243.331 172.833,198.998 173.5,154.5C 179.039,151.133 184.706,147.966 190.5,145C 192.063,144.241 193.063,143.074 193.5,141.5C 200.329,137.251 207.329,133.251 214.5,129.5C 215.303,137.755 215.803,146.089 216,154.5C 216.667,155.167 217.333,155.833 218,156.5C 225.48,152.366 232.98,148.2 240.5,144C 242.635,143.124 243.969,141.624 244.5,139.5C 245.33,130.676 245.83,121.676 246,112.5C 248.167,111.512 250,110.179 251.5,108.5C 258.213,103.805 265.213,99.4716 272.5,95.5C 272.56,96.0431 272.893,96.3764 273.5,96.5C 277.007,94.246 280.673,92.246 284.5,90.5C 285.167,132.998 285.833,175.331 286.5,217.5 Z"/></g>
<g><path style="opacity:1" fill="#0e2b36" d="M 74.5,106.5 C 95.9237,119.844 117.257,132.511 138.5,144.5C 139.107,144.376 139.44,144.043 139.5,143.5C 140.71,143.932 141.71,144.599 142.5,145.5C 141.262,145.81 141.262,146.31 142.5,147C 147.416,149.707 152.249,152.541 157,155.5C 157.167,199.669 157.667,243.669 158.5,287.5C 157.399,288.598 156.066,288.765 154.5,288C 151.436,286.141 148.436,284.308 145.5,282.5C 146.738,282.19 146.738,281.69 145.5,281C 116.5,264.167 87.5,247.333 58.5,230.5C 57.8933,230.624 57.56,230.957 57.5,231.5C 53.3845,229.225 49.3845,226.725 45.5,224C 44.1772,223.184 43.5106,222.017 43.5,220.5C 43.5,176.5 43.5,132.5 43.5,88.5C 43.4346,88.0618 43.6012,87.7284 44,87.5C 54.3148,93.7331 64.4814,100.066 74.5,106.5 Z"/></g>
<g><path style="opacity:1" fill="#0e2b35" d="M 531.5,75.5 C 542.214,62.788 552.547,49.788 562.5,36.5C 562.435,36.9382 562.601,37.2716 563,37.5C 566.666,32.7667 570.833,28.6 575.5,25C 584.76,23.9081 593.76,24.4081 602.5,26.5C 587.857,45.4813 573.191,64.4813 558.5,83.5C 560.22,86.2016 561.887,88.8682 563.5,91.5C 577.359,110.696 591.359,129.863 605.5,149C 594.833,149.667 584.167,149.667 573.5,149C 572.744,147.62 572.078,147.453 571.5,148.5C 558.167,130.5 544.833,112.5 531.5,94.5C 530.501,112.09 530.168,130.423 530.5,149.5C 521.5,149.5 512.5,149.5 503.5,149.5C 503.5,107.833 503.5,66.1667 503.5,24.5C 512.5,24.5 521.5,24.5 530.5,24.5C 530.17,41.6749 530.503,58.6749 531.5,75.5 Z"/></g>
<g><path style="opacity:1" fill="#020406" d="M 286.5,217.5 C 285.833,175.331 285.167,132.998 284.5,90.5C 280.673,92.246 277.007,94.246 273.5,96.5C 272.893,96.3764 272.56,96.0431 272.5,95.5C 276.925,92.6206 281.592,90.2873 286.5,88.5C 286.5,131.5 286.5,174.5 286.5,217.5 Z"/></g>
<g><path style="opacity:1" fill="#2b3134" d="M 251.5,108.5 C 250,110.179 248.167,111.512 246,112.5C 245.83,121.676 245.33,130.676 244.5,139.5C 244.167,139.5 243.833,139.5 243.5,139.5C 243.587,130.897 243.754,122.231 244,113.5C 245.708,110.724 248.208,109.057 251.5,108.5 Z"/></g>
<g><path style="opacity:1" fill="#161c20" d="M 74.5,106.5 C 96.4066,118.405 118.073,130.739 139.5,143.5C 139.44,144.043 139.107,144.376 138.5,144.5C 117.257,132.511 95.9237,119.844 74.5,106.5 Z"/></g>
<g><path style="opacity:1" fill="#1c262a" d="M 679.5,151.5 C 660.24,154.467 643.407,149.467 629,136.5C 623.37,130.24 620.204,122.907 619.5,114.5C 619.369,113.761 619.536,113.094 620,112.5C 620.645,115.559 621.478,118.559 622.5,121.5C 623.931,121.977 625.264,122.643 626.5,123.5C 625.585,124.328 624.919,125.328 624.5,126.5C 626.21,130.384 628.543,133.884 631.5,137C 645.678,148.005 661.678,152.838 679.5,151.5 Z"/></g>
<g><path style="opacity:1" fill="#171d20" d="M 52.5,71.5 C 52.0629,73.0744 51.0629,74.2411 49.5,75C 87.0025,97.2523 124.669,119.252 162.5,141C 163.833,141.667 165.167,141.667 166.5,141C 176.997,135.252 187.33,129.252 197.5,123C 198.946,121.702 200.279,121.535 201.5,122.5C 189.356,129.741 177.023,136.741 164.5,143.5C 125.31,121.411 86.6437,98.5775 48.5,75C 49.2023,73.1437 50.5357,71.977 52.5,71.5 Z"/></g>
<g><path style="opacity:1" fill="#14191c" d="M 563.5,91.5 C 566.215,93.9018 568.715,96.5685 571,99.5C 582.973,116.307 595.14,132.974 607.5,149.5C 595.848,150.666 584.181,150.833 572.5,150C 571.944,149.617 571.611,149.117 571.5,148.5C 572.078,147.453 572.744,147.62 573.5,149C 584.167,149.667 594.833,149.667 605.5,149C 591.359,129.863 577.359,110.696 563.5,91.5 Z"/></g>
<g><path style="opacity:1" fill="#171b1f" d="M 243.5,139.5 C 243.833,139.5 244.167,139.5 244.5,139.5C 243.969,141.624 242.635,143.124 240.5,144C 232.98,148.2 225.48,152.366 218,156.5C 217.333,155.833 216.667,155.167 216,154.5C 215.803,146.089 215.303,137.755 214.5,129.5C 214.56,128.957 214.893,128.624 215.5,128.5C 216.325,137.163 216.992,145.83 217.5,154.5C 226.785,150.526 235.451,145.526 243.5,139.5 Z"/></g>
<g><path style="opacity:1" fill="#15191b" d="M 467.5,143.5 C 453.581,151.323 438.581,154.323 422.5,152.5C 430.356,151.727 438.356,150.894 446.5,150C 453.682,148.774 460.349,146.274 466.5,142.5C 467.107,142.624 467.44,142.957 467.5,143.5 Z"/></g>
<g><path style="opacity:1" fill="#202223" d="M 142.5,145.5 C 147.721,148.362 152.888,151.362 158,154.5C 158.171,183.405 158.671,212.239 159.5,241C 159.83,256.339 159.496,271.839 158.5,287.5C 157.667,243.669 157.167,199.669 157,155.5C 152.249,152.541 147.416,149.707 142.5,147C 141.262,146.31 141.262,145.81 142.5,145.5 Z"/></g>
<g><path style="opacity:0.726" fill="#0f2d37" d="M 765.5,303.5 C 765.5,302.5 765.5,301.5 765.5,300.5C 760.5,300.5 755.5,300.5 750.5,300.5C 750.5,301.5 750.5,302.5 750.5,303.5C 745.463,302.352 740.296,301.352 735,300.5C 730.903,298.526 726.736,296.86 722.5,295.5C 722.5,294.5 722.5,293.5 722.5,292.5C 721.127,292.657 719.793,292.49 718.5,292C 696.613,272.892 688.947,249.225 695.5,221C 699.936,207.227 707.603,195.56 718.5,186C 719.793,185.51 721.127,185.343 722.5,185.5C 722.5,184.5 722.5,183.5 722.5,182.5C 729.148,179.379 736.148,177.046 743.5,175.5C 780.752,169.796 806.252,184.13 820,218.5C 827.859,249.912 819.025,275.412 793.5,295C 784.784,299.779 775.451,302.612 765.5,303.5 Z M 746.5,185.5 C 757.278,184.753 767.778,185.753 778,188.5C 779.5,189.5 781,190.5 782.5,191.5C 779.946,193.708 777.446,196.041 775,198.5C 774.667,198.167 774.333,197.833 774,197.5C 771.48,200.018 768.48,201.685 765,202.5C 757.893,207.459 750.56,212.126 743,216.5C 742.333,206.5 742.333,196.5 743,186.5C 744.756,187.985 745.923,187.652 746.5,185.5 Z M 730.5,191.5 C 731.662,208.328 731.828,225.328 731,242.5C 728.926,240.548 726.759,238.715 724.5,237C 718.941,234.708 713.608,232.041 708.5,229C 707.313,227.981 706.313,226.814 705.5,225.5C 709.691,212.08 717.691,201.58 729.5,194C 730.252,193.329 730.586,192.496 730.5,191.5 Z M 793.5,199.5 C 805.652,209.515 811.486,222.515 811,238.5C 803.91,234.373 797.076,229.873 790.5,225C 784.123,222.434 778.123,219.268 772.5,215.5C 771.754,214.264 771.421,212.93 771.5,211.5C 773.06,211.481 774.56,211.148 776,210.5C 782.156,207.093 787.989,203.426 793.5,199.5 Z M 784.5,236.5 C 790.515,239.902 796.515,243.402 802.5,247C 804.765,248.118 807.099,248.951 809.5,249.5C 809.664,252.187 809.497,254.854 809,257.5C 803.625,269.22 795.625,278.887 785,286.5C 784.5,269.837 784.333,253.17 784.5,236.5 Z M 704.5,240.5 C 704.56,239.957 704.893,239.624 705.5,239.5C 706.287,240.242 706.953,241.075 707.5,242C 717.804,247.662 728.137,253.329 738.5,259C 741.326,260.483 743.659,262.483 745.5,265C 738.321,268.186 731.654,272.186 725.5,277C 724.241,277.982 722.908,278.315 721.5,278C 710.707,267.775 705.041,255.275 704.5,240.5 Z M 772.5,261.5 C 773.658,271.325 773.825,281.325 773,291.5C 762.692,292.807 752.358,292.807 742,291.5C 739.128,289.928 736.294,288.262 733.5,286.5C 741.743,280.912 750.076,275.412 758.5,270C 762.903,268.197 767.237,266.197 771.5,264C 772.252,263.329 772.586,262.496 772.5,261.5 Z"/></g>
<g><path style="opacity:1" fill="#000100" d="M 573.5,179.5 C 548.005,180.498 522.339,180.831 496.5,180.5C 496.5,219.167 496.5,257.833 496.5,296.5C 496.167,296.5 495.833,296.5 495.5,296.5C 495.5,257.5 495.5,218.5 495.5,179.5C 521.5,179.5 547.5,179.5 573.5,179.5 Z"/></g>
<g><path style="opacity:1" fill="#000203" d="M 926.5,179.5 C 926.667,190.505 926.5,201.505 926,212.5C 925.5,201.839 925.333,191.172 925.5,180.5C 917.5,180.5 909.5,180.5 901.5,180.5C 901.831,203.673 901.498,226.673 900.5,249.5C 900.5,226.167 900.5,202.833 900.5,179.5C 909.167,179.5 917.833,179.5 926.5,179.5 Z"/></g>
<g><path style="opacity:1" fill="#0d2b36" d="M 858.5,183.5 C 869.435,203.093 880.768,222.427 892.5,241.5C 890.956,241.297 889.622,240.63 888.5,239.5C 887.158,240.902 886.324,240.569 886,238.5C 885.586,238.957 885.086,239.291 884.5,239.5C 883.468,237.96 882.135,237.46 880.5,238C 880.957,238.414 881.291,238.914 881.5,239.5C 880.5,240.167 879.5,240.833 878.5,241.5C 878.667,241.833 878.833,242.167 879,242.5C 880,241.167 881,241.167 882,242.5C 882.805,240.099 883.638,240.266 884.5,243C 885.5,243.333 886.5,243.667 887.5,244C 886.167,244.667 884.833,245.333 883.5,246C 884.167,246.333 884.833,246.667 885.5,247C 884.921,250.591 883.088,253.424 880,255.5C 879.667,255.167 879.333,254.833 879,254.5C 878.667,255.5 878.333,256.5 878,257.5C 871.749,248.001 865.749,238.334 860,228.5C 859.31,227.262 858.81,227.262 858.5,228.5C 857.778,228.082 857.278,227.416 857,226.5C 856.601,226.728 856.435,227.062 856.5,227.5C 855.502,250.661 855.169,273.994 855.5,297.5C 847.833,297.5 840.167,297.5 832.5,297.5C 832.5,258.5 832.5,219.5 832.5,180.5C 840.507,180.334 848.507,180.5 856.5,181C 857.066,181.995 857.733,182.828 858.5,183.5 Z"/></g>
<g><path style="opacity:1" fill="#0d161c" d="M 574.5,181.5 C 574.5,188.833 574.5,196.167 574.5,203.5C 557.167,203.5 539.833,203.5 522.5,203.5C 522.5,211.5 522.5,219.5 522.5,227.5C 521.172,219.098 521.172,210.598 522.5,202C 539.497,201.5 556.497,201.333 573.5,201.5C 573.176,194.646 573.509,187.979 574.5,181.5 Z"/></g>
<g><path style="opacity:1" fill="#162126" d="M 43.5,88.5 C 43.5,132.5 43.5,176.5 43.5,220.5C 42.7321,219.737 42.2321,218.737 42,217.5C 41.1033,174.321 41.6033,131.321 43.5,88.5 Z"/></g>
<g><path style="opacity:1" fill="#151b1e" d="M 469.5,195.5 C 475.041,205.542 476.708,216.208 474.5,227.5C 473.672,221.347 473.172,215.013 473,208.5C 471.798,204.395 470.298,200.395 468.5,196.5C 468.624,195.893 468.957,195.56 469.5,195.5 Z"/></g>
<g><path style="opacity:1" fill="#127f80" d="M 754.5,219.5 C 757.247,219.187 759.914,219.52 762.5,220.5C 765.352,222.757 768.352,224.757 771.5,226.5C 772.736,227.246 774.07,227.579 775.5,227.5C 775.5,235.167 775.5,242.833 775.5,250.5C 769.726,252.886 764.06,255.553 758.5,258.5C 752.188,256.887 746.522,253.887 741.5,249.5C 740.372,242.884 740.205,236.218 741,229.5C 745.659,226.25 750.159,222.917 754.5,219.5 Z"/></g>
<g><path style="opacity:1" fill="#171d21" d="M 859.5,182.5 C 872.833,205.167 886.167,227.833 899.5,250.5C 899.19,251.738 898.69,251.738 898,250.5C 896.141,247.436 894.308,244.436 892.5,241.5C 880.768,222.427 869.435,203.093 858.5,183.5C 858.5,182.833 858.833,182.5 859.5,182.5 Z"/></g>
<g><path style="opacity:1" fill="#162024" d="M 522.5,227.5 C 537.837,227.333 553.17,227.5 568.5,228C 569.82,235.137 569.82,242.303 568.5,249.5C 553.181,250.499 537.848,250.833 522.5,250.5C 522.5,258.5 522.5,266.5 522.5,274.5C 539.675,274.17 556.675,274.503 573.5,275.5C 556.5,275.5 539.5,275.5 522.5,275.5C 521.172,266.765 521.172,257.932 522.5,249C 537.496,248.5 552.496,248.333 567.5,248.5C 567.5,241.833 567.5,235.167 567.5,228.5C 552.324,228.829 537.324,228.496 522.5,227.5 Z"/></g>
<g><path style="opacity:1" fill="#06090b" d="M 591.5,218.5 C 592.156,219.622 592.489,220.955 592.5,222.5C 591.942,231.995 591.276,241.328 590.5,250.5C 590.263,239.802 590.596,229.135 591.5,218.5 Z"/></g>
<g><path style="opacity:1" fill="#11191d" d="M 623.5,210.5 C 621.297,215.613 619.797,220.947 619,226.5C 618.5,235.827 618.334,245.161 618.5,254.5C 617.49,253.679 616.99,251.346 617,247.5C 616.144,237.726 616.81,228.059 619,218.5C 619.959,214.832 621.459,212.165 623.5,210.5 Z"/></g>
<g><path style="opacity:1" fill="#1d2224" d="M 859.5,182.5 C 858.833,182.5 858.5,182.833 858.5,183.5C 857.733,182.828 857.066,181.995 856.5,181C 848.507,180.5 840.507,180.334 832.5,180.5C 832.5,219.5 832.5,258.5 832.5,297.5C 840.167,297.5 847.833,297.5 855.5,297.5C 855.169,273.994 855.502,250.661 856.5,227.5C 856.667,251.169 856.5,274.836 856,298.5C 848,299.833 840,299.833 832,298.5C 830.851,258.841 830.351,219.175 830.5,179.5C 839.506,179.334 848.506,179.5 857.5,180C 858.381,180.708 859.047,181.542 859.5,182.5 Z"/></g>
<g><path style="opacity:1" fill="#0f2b35" d="M 437.5,179.5 C 450.919,179.543 461.585,184.876 469.5,195.5C 468.957,195.56 468.624,195.893 468.5,196.5C 470.298,200.395 471.798,204.395 473,208.5C 473.172,215.013 473.672,221.347 474.5,227.5C 472.293,239.376 465.626,247.71 454.5,252.5C 453.438,253.425 453.438,254.425 454.5,255.5C 453.957,255.56 453.624,255.893 453.5,256.5C 460.915,269.665 468.581,282.665 476.5,295.5C 466.548,296.445 456.881,296.778 447.5,296.5C 440.321,283.315 432.988,270.148 425.5,257C 420.845,256.501 416.179,256.334 411.5,256.5C 410.501,269.087 410.168,282.42 410.5,296.5C 402.5,296.5 394.5,296.5 386.5,296.5C 386.5,257.833 386.5,219.167 386.5,180.5C 403.675,180.83 420.675,180.497 437.5,179.5 Z M 411.5,233.5 C 411.827,223.652 411.494,213.986 410.5,204.5C 410.611,203.883 410.944,203.383 411.5,203C 420.576,202.087 429.576,202.42 438.5,204C 444.24,206.795 447.24,211.462 447.5,218C 447.293,227.206 442.626,232.206 433.5,233C 426.174,233.5 418.841,233.666 411.5,233.5 Z"/></g>
<g><path style="opacity:1" fill="#000102" d="M 410.5,204.5 C 411.494,213.986 411.827,223.652 411.5,233.5C 410.822,224.098 410.155,214.598 409.5,205C 409.728,204.601 410.062,204.435 410.5,204.5 Z"/></g>
<g><path style="opacity:1" fill="#0e2b36" d="M 573.5,179.5 C 574.338,179.842 574.672,180.508 574.5,181.5C 573.509,187.979 573.176,194.646 573.5,201.5C 556.497,201.333 539.497,201.5 522.5,202C 521.172,210.598 521.172,219.098 522.5,227.5C 537.324,228.496 552.324,228.829 567.5,228.5C 567.5,235.167 567.5,241.833 567.5,248.5C 552.496,248.333 537.496,248.5 522.5,249C 521.172,257.932 521.172,266.765 522.5,275.5C 539.325,276.497 556.325,276.83 573.5,276.5C 573.5,283.167 573.5,289.833 573.5,296.5C 547.625,296.523 521.959,296.523 496.5,296.5C 496.5,257.833 496.5,219.167 496.5,180.5C 522.339,180.831 548.005,180.498 573.5,179.5 Z"/></g>
<g><path style="opacity:1" fill="#1e2529" d="M 193.5,141.5 C 193.063,143.074 192.063,144.241 190.5,145C 184.706,147.966 179.039,151.133 173.5,154.5C 172.833,198.998 172.167,243.331 171.5,287.5C 170.339,243.238 170.173,198.904 171,154.5C 178.282,149.776 185.782,145.443 193.5,141.5 Z"/></g>
<g><path style="opacity:1" fill="#0e2a35" d="M 926.5,179.5 C 927.498,204.661 927.831,229.995 927.5,255.5C 926.504,269.323 926.171,283.323 926.5,297.5C 917.779,297.775 909.113,297.442 900.5,296.5C 886.514,273.869 872.514,251.203 858.5,228.5C 858.81,227.262 859.31,227.262 860,228.5C 865.749,238.334 871.749,248.001 878,257.5C 878.333,256.5 878.667,255.5 879,254.5C 879.333,254.833 879.667,255.167 880,255.5C 883.088,253.424 884.921,250.591 885.5,247C 884.833,246.667 884.167,246.333 883.5,246C 884.833,245.333 886.167,244.667 887.5,244C 886.5,243.667 885.5,243.333 884.5,243C 883.638,240.266 882.805,240.099 882,242.5C 881,241.167 880,241.167 879,242.5C 878.833,242.167 878.667,241.833 878.5,241.5C 879.5,240.833 880.5,240.167 881.5,239.5C 881.291,238.914 880.957,238.414 880.5,238C 882.135,237.46 883.468,237.96 884.5,239.5C 885.086,239.291 885.586,238.957 886,238.5C 886.324,240.569 887.158,240.902 888.5,239.5C 889.622,240.63 890.956,241.297 892.5,241.5C 894.308,244.436 896.141,247.436 898,250.5C 898.69,251.738 899.19,251.738 899.5,250.5C 900.167,250.5 900.5,250.167 900.5,249.5C 901.498,226.673 901.831,203.673 901.5,180.5C 909.5,180.5 917.5,180.5 925.5,180.5C 925.333,191.172 925.5,201.839 926,212.5C 926.5,201.505 926.667,190.505 926.5,179.5 Z"/></g>
<g><path style="opacity:1" fill="#151d21" d="M 682.5,260.5 C 676.681,261.328 670.681,261.828 664.5,262C 658.556,276.071 648.889,280.904 635.5,276.5C 649.716,278.903 659.05,273.403 663.5,260C 669.825,259.898 676.158,260.065 682.5,260.5 Z"/></g>
<g><path style="opacity:1" fill="#151c21" d="M 57.5,231.5 C 57.56,230.957 57.8933,230.624 58.5,230.5C 87.5,247.333 116.5,264.167 145.5,281C 146.738,281.69 146.738,282.19 145.5,282.5C 116.167,265.5 86.8333,248.5 57.5,231.5 Z"/></g>
<g><path style="opacity:1" fill="#0f2b35" d="M 623.5,210.5 C 621.459,212.165 619.959,214.832 619,218.5C 616.81,228.059 616.144,237.726 617,247.5C 616.99,251.346 617.49,253.679 618.5,254.5C 619.404,255.209 619.737,256.209 619.5,257.5C 619.153,267.071 623.653,273.738 633,277.5C 633.464,276.906 633.631,276.239 633.5,275.5C 634.492,275.328 635.158,275.662 635.5,276.5C 648.889,280.904 658.556,276.071 664.5,262C 670.681,261.828 676.681,261.328 682.5,260.5C 684.527,260.338 686.527,260.505 688.5,261C 687.904,278.625 679.238,290.791 662.5,297.5C 662.631,296.761 662.464,296.094 662,295.5C 643.437,301.99 625.937,299.823 609.5,289C 598.72,279.272 592.887,267.106 592,252.5C 591.517,253.448 591.351,254.448 591.5,255.5C 590.549,254.081 590.216,252.415 590.5,250.5C 591.276,241.328 591.942,231.995 592.5,222.5C 592.489,220.955 592.156,219.622 591.5,218.5C 596.872,191.133 613.539,177.133 641.5,176.5C 661.543,176.594 676.376,185.26 686,202.5C 688.128,207.975 689.295,213.642 689.5,219.5C 680.877,220.774 672.21,221.274 663.5,221C 659.807,203.977 649.473,197.977 632.5,203C 628.7,204.642 625.7,207.142 623.5,210.5 Z"/></g>
<g><path style="opacity:1" fill="#101b20" d="M 437.5,179.5 C 420.675,180.497 403.675,180.83 386.5,180.5C 386.5,219.167 386.5,257.833 386.5,296.5C 394.5,296.5 402.5,296.5 410.5,296.5C 410.168,282.42 410.501,269.087 411.5,256.5C 411.5,270.5 411.5,284.5 411.5,298.5C 402.582,298.817 393.749,298.484 385,297.5C 384.333,258.5 384.333,219.5 385,180.5C 402.423,179.508 419.923,179.175 437.5,179.5 Z"/></g>
<g><path style="opacity:1" fill="#131c21" d="M 454.5,255.5 C 463.292,269.419 471.292,283.753 478.5,298.5C 468.494,298.666 458.494,298.5 448.5,298C 447.944,297.617 447.611,297.117 447.5,296.5C 456.881,296.778 466.548,296.445 476.5,295.5C 468.581,282.665 460.915,269.665 453.5,256.5C 453.624,255.893 453.957,255.56 454.5,255.5 Z"/></g>
<g><path style="opacity:1" fill="#0d1318" d="M 619.5,257.5 C 620.36,266.592 625.027,272.592 633.5,275.5C 633.631,276.239 633.464,276.906 633,277.5C 623.653,273.738 619.153,267.071 619.5,257.5 Z"/></g>
<g><path style="opacity:1" fill="#010508" d="M 927.5,255.5 C 927.5,269.833 927.5,284.167 927.5,298.5C 918.827,298.666 910.16,298.5 901.5,298C 900.944,297.617 900.611,297.117 900.5,296.5C 909.113,297.442 917.779,297.775 926.5,297.5C 926.171,283.323 926.504,269.323 927.5,255.5 Z"/></g>
<g><path style="opacity:1" fill="#161b1f" d="M 662.5,297.5 C 643.254,303.476 625.254,300.976 608.5,290C 598.161,280.821 592.494,269.321 591.5,255.5C 591.351,254.448 591.517,253.448 592,252.5C 592.887,267.106 598.72,279.272 609.5,289C 625.937,299.823 643.437,301.99 662,295.5C 662.464,296.094 662.631,296.761 662.5,297.5 Z"/></g>
<g><path style="opacity:1" fill="#020f17" d="M 522.5,275.5 C 539.5,275.5 556.5,275.5 573.5,275.5C 574.492,282.982 574.825,290.648 574.5,298.5C 548.498,298.667 522.498,298.5 496.5,298C 495.944,297.617 495.611,297.117 495.5,296.5C 495.833,296.5 496.167,296.5 496.5,296.5C 521.959,296.523 547.625,296.523 573.5,296.5C 573.5,289.833 573.5,283.167 573.5,276.5C 556.325,276.83 539.325,276.497 522.5,275.5 Z"/></g>
<g><path style="opacity:0.501" fill="#324950" d="M 765.5,303.5 C 760.5,303.5 755.5,303.5 750.5,303.5C 750.5,302.5 750.5,301.5 750.5,300.5C 755.5,300.5 760.5,300.5 765.5,300.5C 765.5,301.5 765.5,302.5 765.5,303.5 Z"/></g>
<g><path style="opacity:1" fill="#000105" d="M 826.5,301.5 C 827.833,302.167 827.833,302.167 826.5,301.5 Z"/></g>
</svg>
