<?xml version="1.0" encoding="UTF-8"?>
<!DOCTYPE svg PUBLIC "-//W3C//DTD SVG 1.1//EN" "http://www.w3.org/Graphics/SVG/1.1/DTD/svg11.dtd">
<svg xmlns="http://www.w3.org/2000/svg" version="1.1" width="975px" height="345px" style="shape-rendering:geometricPrecision; text-rendering:geometricPrecision; image-rendering:optimizeQuality; fill-rule:evenodd; clip-rule:evenodd" xmlns:xlink="http://www.w3.org/1999/xlink">
<g><path style="opacity:1" fill="#fefffe" d="M 162.5,8.5 C 165.271,8.42074 167.937,8.92074 170.5,10C 206.167,31 241.833,52 277.5,73C 279.255,73.7199 280.089,74.8866 280,76.5C 266.833,84.3333 253.667,92.1667 240.5,100C 236.486,100.505 232.819,99.5055 229.5,97C 194.331,75.9146 158.998,55.0813 123.5,34.5C 122.269,33.3493 122.269,32.1827 123.5,31C 136.43,23.2046 149.43,15.7046 162.5,8.5 Z"/></g>
<g><path style="opacity:1" fill="#fefffe" d="M 423.5,21.5 C 438.039,20.2555 451.705,23.0888 464.5,30C 474.126,37.0869 479.126,46.5869 479.5,58.5C 470.927,59.3454 462.427,60.6788 454,62.5C 453.228,62.3552 452.561,62.0219 452,61.5C 450.177,50.2414 443.51,44.9081 432,45.5C 422.321,44.4063 416.154,48.4063 413.5,57.5C 413.875,61.7625 415.875,64.9292 419.5,67C 432.332,71.7925 445.332,76.1259 458.5,80C 470.907,83.7369 478.407,91.9036 481,104.5C 484.547,129.584 474.047,145.084 449.5,151C 433.087,154.026 417.087,152.692 401.5,147C 387.999,139.501 381.665,128.001 382.5,112.5C 391.49,111.406 400.49,110.406 409.5,109.5C 410.024,119.189 415.024,125.023 424.5,127C 431.567,127.839 438.567,127.506 445.5,126C 451.582,122.998 453.749,118.165 452,111.5C 451.226,109.061 449.726,107.227 447.5,106C 434.399,100.723 421.065,96.0563 407.5,92C 388.187,84.0956 381.02,69.9289 386,49.5C 389.713,37.4526 397.546,29.2859 409.5,25C 414.295,23.8011 418.962,22.6345 423.5,21.5 Z"/></g>
<g><path style="opacity:1" fill="#fefffe" d="M 602.5,22.5 C 603.289,22.7828 603.956,23.2828 604.5,24C 589.046,43.743 573.712,63.5764 558.5,83.5C 574.833,105.5 591.167,127.5 607.5,149.5C 595.848,150.666 584.181,150.833 572.5,150C 558.633,131.766 545.133,113.266 532,94.5C 531.5,113.164 531.333,131.83 531.5,150.5C 521.584,150.819 511.75,150.486 502,149.5C 501.5,107.501 501.333,65.5013 501.5,23.5C 511.5,23.5 521.5,23.5 531.5,23.5C 531.333,40.8365 531.5,58.1699 532,75.5C 545.288,58.4234 558.454,41.2568 571.5,24C 582.008,23.8303 592.341,23.3303 602.5,22.5 Z"/></g>
<g><path style="opacity:1" fill="#fefffe" d="M 618.5,23.5 C 628.167,23.5 637.833,23.5 647.5,23.5C 647.049,53.2031 647.549,82.8698 649,112.5C 652.365,122.778 659.531,127.445 670.5,126.5C 680.335,126.822 687.168,122.488 691,113.5C 692.46,83.5419 692.96,53.5419 692.5,23.5C 702.416,23.181 712.25,23.5144 722,24.5C 722.935,54.5276 722.601,84.5276 721,114.5C 717.678,130.486 708.511,141.653 693.5,148C 673.745,154.988 654.745,153.321 636.5,143C 626.983,135.806 621.15,126.306 619,114.5C 618.5,84.1685 618.333,53.8352 618.5,23.5 Z"/></g>
<g><path style="opacity:1" fill="#fefffe" d="M 97.5,44.5 C 99.3084,44.4914 100.975,44.9914 102.5,46C 139.335,68.2518 176.335,90.2518 213.5,112C 214.022,112.561 214.355,113.228 214.5,114C 198.356,124.578 181.69,134.411 164.5,143.5C 126.003,121.419 87.6694,99.0857 49.5,76.5C 48.269,75.3493 48.269,74.1827 49.5,73C 65.67,63.6366 81.67,54.1366 97.5,44.5 Z"/></g>
<g><path style="opacity:1" fill="#fefffe" d="M 43.5,87.5 C 81.557,109.948 119.724,132.281 158,154.5C 158.171,183.405 158.671,212.239 159.5,241C 159.815,256.66 159.481,272.493 158.5,288.5C 153.911,287.447 149.578,285.614 145.5,283C 111.419,263.211 77.5853,243.044 44,222.5C 43.1376,220.913 42.4709,219.246 42,217.5C 41.1095,174.086 41.6095,130.753 43.5,87.5 Z"/></g>
<g><path style="opacity:1" fill="#fefffe" d="M 283.5,88.5 C 284.5,88.5 285.5,88.5 286.5,88.5C 286.667,132.168 286.5,175.835 286,219.5C 284.878,221.624 283.378,223.457 281.5,225C 245.833,246 210.167,267 174.5,288C 173.365,288.749 172.365,288.583 171.5,287.5C 170.339,243.208 170.172,198.875 171,154.5C 185.704,145.634 200.537,136.967 215.5,128.5C 216.325,137.163 216.992,145.83 217.5,154.5C 226.304,150.512 234.804,145.846 243,140.5C 243.5,138.5 244,136.5 244.5,134.5C 243.005,126.757 243.172,119.09 245,111.5C 257.979,103.933 270.813,96.2665 283.5,88.5 Z"/></g>
<g><path style="opacity:0.756" fill="#fefffe" d="M 743.5,174.5 C 763.522,171.782 781.855,175.782 798.5,186.5C 822.726,209.351 828.893,236.351 817,267.5C 801.55,296.039 777.383,307.872 744.5,303C 736.907,301.263 729.574,298.763 722.5,295.5C 722.5,294.5 722.5,293.5 722.5,292.5C 721.127,292.657 719.793,292.49 718.5,292C 696.613,272.892 688.947,249.225 695.5,221C 699.936,207.227 707.603,195.56 718.5,186C 719.793,185.51 721.127,185.343 722.5,185.5C 722.5,184.5 722.5,183.5 722.5,182.5C 729.549,179.544 736.549,176.878 743.5,174.5 Z M 746.5,185.5 C 757.278,184.753 767.778,185.753 778,188.5C 779.5,189.5 781,190.5 782.5,191.5C 779.946,193.708 777.446,196.041 775,198.5C 774.667,198.167 774.333,197.833 774,197.5C 771.48,200.018 768.48,201.685 765,202.5C 757.893,207.459 750.56,212.126 743,216.5C 742.333,206.5 742.333,196.5 743,186.5C 744.756,187.985 745.923,187.652 746.5,185.5 Z M 730.5,191.5 C 731.662,208.328 731.828,225.328 731,242.5C 728.926,240.548 726.759,238.715 724.5,237C 718.941,234.708 713.608,232.041 708.5,229C 707.313,227.981 706.313,226.814 705.5,225.5C 709.691,212.08 717.691,201.58 729.5,194C 730.252,193.329 730.586,192.496 730.5,191.5 Z M 793.5,199.5 C 805.652,209.515 811.486,222.515 811,238.5C 803.91,234.373 797.076,229.873 790.5,225C 784.123,222.434 778.123,219.268 772.5,215.5C 771.754,214.264 771.421,212.93 771.5,211.5C 773.06,211.481 774.56,211.148 776,210.5C 782.156,207.093 787.989,203.426 793.5,199.5 Z M 784.5,236.5 C 790.515,239.902 796.515,243.402 802.5,247C 804.765,248.118 807.099,248.951 809.5,249.5C 809.664,252.187 809.497,254.854 809,257.5C 803.625,269.22 795.625,278.887 785,286.5C 784.5,269.837 784.333,253.17 784.5,236.5 Z M 704.5,240.5 C 704.56,239.957 704.893,239.624 705.5,239.5C 706.287,240.242 706.953,241.075 707.5,242C 717.804,247.662 728.137,253.329 738.5,259C 741.326,260.483 743.659,262.483 745.5,265C 738.321,268.186 731.654,272.186 725.5,277C 724.241,277.982 722.908,278.315 721.5,278C 710.707,267.775 705.041,255.275 704.5,240.5 Z M 772.5,261.5 C 773.658,271.325 773.825,281.325 773,291.5C 762.692,292.807 752.358,292.807 742,291.5C 739.128,289.928 736.294,288.262 733.5,286.5C 741.743,280.912 750.076,275.412 758.5,270C 762.903,268.197 767.237,266.197 771.5,264C 772.252,263.329 772.586,262.496 772.5,261.5 Z"/></g>
<g><path style="opacity:1" fill="#fefffe" d="M 633.5,176.5 C 649.578,174.933 663.911,179.1 676.5,189C 685.006,197.34 689.339,207.507 689.5,219.5C 680.877,220.774 672.21,221.274 663.5,221C 660.455,205.646 651.121,199.313 635.5,202C 628.763,203.736 624.263,207.903 622,214.5C 620.384,218.347 619.384,222.347 619,226.5C 618.333,235.833 618.333,245.167 619,254.5C 620.997,272.26 630.83,279.426 648.5,276C 656.6,273.566 661.6,268.233 663.5,260C 671.828,259.958 680.162,260.291 688.5,261C 687.602,280.937 677.268,293.603 657.5,299C 612.225,304.728 589.891,284.728 590.5,239C 588.395,218.704 594.395,201.371 608.5,187C 616.207,181.808 624.54,178.308 633.5,176.5 Z"/></g>
<g><path style="opacity:1" fill="#fefffe" d="M 385.5,179.5 C 406.207,179.072 426.873,179.572 447.5,181C 463.303,185.138 472.469,195.305 475,211.5C 477.602,230.631 470.436,244.631 453.5,253.5C 460.748,266.332 468.248,278.998 476,291.5C 477.411,293.65 478.245,295.984 478.5,298.5C 468.494,298.666 458.494,298.5 448.5,298C 440.833,284.333 433.167,270.667 425.5,257C 420.845,256.501 416.179,256.334 411.5,256.5C 411.5,270.5 411.5,284.5 411.5,298.5C 402.582,298.817 393.749,298.484 385,297.5C 384.173,258.096 384.34,218.762 385.5,179.5 Z M 411.5,202.5 C 420.582,202.086 429.582,202.586 438.5,204C 444.24,206.795 447.24,211.462 447.5,218C 447.293,227.206 442.626,232.206 433.5,233C 426.174,233.5 418.841,233.666 411.5,233.5C 411.44,222.957 411.44,212.624 411.5,202.5 Z"/></g>
<g><path style="opacity:1" fill="#fefffe" d="M 495.5,179.5 C 521.833,179.5 548.167,179.5 574.5,179.5C 574.5,187.5 574.5,195.5 574.5,203.5C 557.167,203.5 539.833,203.5 522.5,203.5C 522.5,211.5 522.5,219.5 522.5,227.5C 537.837,227.333 553.17,227.5 568.5,228C 569.82,235.137 569.82,242.303 568.5,249.5C 553.181,250.499 537.848,250.833 522.5,250.5C 522.5,258.5 522.5,266.5 522.5,274.5C 539.503,274.333 556.503,274.5 573.5,275C 574.482,282.747 574.815,290.58 574.5,298.5C 548.259,298.828 522.092,298.495 496,297.5C 495.5,258.168 495.333,218.835 495.5,179.5 Z"/></g>
<g><path style="opacity:1" fill="#fefffe" d="M 830.5,179.5 C 839.506,179.334 848.506,179.5 857.5,180C 871.667,203.5 885.833,227 900,250.5C 900.5,226.836 900.667,203.169 900.5,179.5C 909.5,179.5 918.5,179.5 927.5,179.5C 927.5,219.167 927.5,258.833 927.5,298.5C 918.827,298.666 910.16,298.5 901.5,298C 886.792,274.083 871.959,250.249 857,226.5C 856.667,250.5 856.333,274.5 856,298.5C 848,299.833 840,299.833 832,298.5C 830.851,258.841 830.351,219.175 830.5,179.5 Z"/></g>
<g><path style="opacity:1" fill="#fefffe" d="M 826.5,301.5 C 827.833,302.167 827.833,302.167 826.5,301.5 Z"/></g>
</svg>
